<svg fill="none" height="22" viewBox="0 0 24 24" width="22" xmlns="http://www.w3.org/2000/svg"><path d="M12 22C6.477 22 2 17.523 2 12C2 6.477 6.477 2 12 2C17.523 2 22 6.477 22 12C22 17.523 17.523 22 12 22ZM12 20C14.1217 20 16.1566 19.1571 17.6569 17.6569C19.1571 16.1566 20 14.1217 20 12C20 9.87827 19.1571 7.84344 17.6569 6.34315C16.1566 4.84285 14.1217 4 12 4C9.87827 4 7.84344 4.84285 6.34315 6.34315C4.84285 7.84344 4 9.87827 4 12C4 14.1217 4.84285 16.1566 6.34315 17.6569C7.84344 19.1571 9.87827 20 12 20Z" fill="currentColor"></path><path d="M12 15C13.1835 15 14.2712 15.4113 15.1279 16.0991C15.4665 16.3709 15.4398 16.8738 15.1187 17.166C14.8962 17.3685 14.5788 17.4225 14.2915 17.3332C13.605 17.1198 12.8259 17 12 17C11.1741 17 10.3949 17.1205 9.70841 17.3331C9.42116 17.422 9.104 17.3677 8.88161 17.1653C8.56025 16.8728 8.53318 16.3695 8.87206 16.0976C9.2087 15.8274 9.57986 15.6014 9.97666 15.426C10.6139 15.1442 11.3032 14.9991 12 15ZM8.5 10C8.89783 10 9.27936 10.158 9.56066 10.4393C9.84197 10.7206 10 11.1022 10 11.5C10 11.8978 9.84197 12.2794 9.56066 12.5607C9.27936 12.842 8.89783 13 8.5 13C8.10218 13 7.72065 12.842 7.43934 12.5607C7.15804 12.2794 7 11.8978 7 11.5C7 11.1022 7.15804 10.7206 7.43934 10.4393C7.72065 10.158 8.10218 10 8.5 10ZM15.5 10C15.8978 10 16.2794 10.158 16.5607 10.4393C16.842 10.7206 17 11.1022 17 11.5C17 11.8978 16.842 12.2794 16.5607 12.5607C16.2794 12.842 15.8978 13 15.5 13C15.1022 13 14.7206 12.842 14.4393 12.5607C14.158 12.2794 14 11.8978 14 11.5C14 11.1022 14.158 10.7206 14.4393 10.4393C14.7206 10.158 15.1022 10 15.5 10Z" fill="currentColor"></path></svg>