<svg fill="none" height="22" viewBox="0 0 24 24" width="22" xmlns="http://www.w3.org/2000/svg"><path d="M12 2C17.523 2 22 6.477 22 12C22 17.523 17.523 22 12 22C6.477 22 2 17.523 2 12C2 6.477 6.477 2 12 2ZM12 4C9.87827 4 7.84344 4.84285 6.34315 6.34315C4.84285 7.84344 4 9.87827 4 12C4 14.1217 4.84285 16.1566 6.34315 17.6569C7.84344 19.1571 9.87827 20 12 20C14.1217 20 16.1566 19.1571 17.6569 17.6569C19.1571 16.1566 20 14.1217 20 12C20 9.87827 19.1571 7.84344 17.6569 6.34315C16.1566 4.84285 14.1217 4 12 4ZM12 12C14 12 15.667 12.333 17 13C17 14.3261 16.4732 15.5979 15.5355 16.5355C14.5979 17.4732 13.3261 18 12 18C10.6739 18 9.40215 17.4732 8.46447 16.5355C7.52678 15.5979 7 14.3261 7 13C8.333 12.333 10 12 12 12ZM8.5 7C9.07633 6.99988 9.63499 7.19889 10.0815 7.56335C10.5279 7.9278 10.8347 8.43532 10.95 9H6.05C6.16526 8.43532 6.47209 7.9278 6.91855 7.56335C7.36501 7.19889 7.92367 6.99988 8.5 7ZM15.5 7C16.0763 6.99988 16.635 7.19889 17.0814 7.56335C17.5279 7.9278 17.8347 8.43532 17.95 9H13.05C13.1653 8.43532 13.4721 7.9278 13.9185 7.56335C14.365 7.19889 14.9237 6.99988 15.5 7Z" fill="currentColor"></path></svg>