<svg width="50" height="50" viewBox="0 0 50 50" fill="none" xmlns="http://www.w3.org/2000/svg">
<g clip-path="url(#clip0_1_3)">
<rect width="50" height="50" fill="white"/>
<circle cx="25" cy="25" r="23.5" stroke="#00418C" stroke-width="3"/>
<path d="M22.1129 38V18.9091H27.4077V38H22.1129ZM24.7727 16.4482C23.9856 16.4482 23.3103 16.1871 22.7468 15.6651C22.1916 15.1348 21.9141 14.5009 21.9141 13.7635C21.9141 13.0343 22.1916 12.4087 22.7468 11.8867C23.3103 11.3564 23.9856 11.0913 24.7727 11.0913C25.5599 11.0913 26.2311 11.3564 26.7862 11.8867C27.3497 12.4087 27.6314 13.0343 27.6314 13.7635C27.6314 14.5009 27.3497 15.1348 26.7862 15.6651C26.2311 16.1871 25.5599 16.4482 24.7727 16.4482Z" fill="#00418C"/>
</g>
<defs>
<clipPath id="clip0_1_3">
<rect width="50" height="50" fill="white"/>
</clipPath>
</defs>
</svg>
