<svg width="747" height="747" viewBox="0 0 747 747" fill="none" xmlns="http://www.w3.org/2000/svg">
<path d="M586.987 373.333C586.987 388.041 575.039 399.989 560.331 399.989H400.317V560.003C400.317 574.711 388.369 586.659 373.661 586.659C358.953 586.659 347.005 574.711 347.005 560.003V399.989H186.992C172.284 399.989 160.336 388.041 160.336 373.333C160.336 358.625 172.284 346.677 186.992 346.677H347.005V186.664C347.005 171.956 358.953 160.008 373.661 160.008C388.369 160.008 400.317 171.956 400.317 186.664V346.677H560.331C575.039 346.677 586.987 358.625 586.987 373.333ZM747 211.08V535.587C747 651.993 652.323 746.667 535.92 746.667H211.413C95.0066 746.667 0.333313 651.989 0.333313 535.587V211.08C0.333313 94.6733 95.0106 0 211.413 0H535.92C652.327 0 747 94.6773 747 211.08ZM693.688 211.08C693.688 124.096 622.901 53.3067 535.915 53.3067H211.408C124.424 53.3067 53.6346 124.093 53.6346 211.08V535.587C53.6346 622.571 124.421 693.36 211.408 693.36H535.915C622.899 693.36 693.688 622.573 693.688 535.587V211.08Z" fill="black"/>
</svg>
