<svg width="747" height="747" viewBox="0 0 747 747" fill="none" xmlns="http://www.w3.org/2000/svg">
<path d="M746.7 211.005V535.395C746.7 651.76 652.056 746.4 535.695 746.4H211.305C94.9394 746.4 0.299927 651.756 0.299927 535.395V211.005C0.299927 94.6395 94.9434 0 211.305 0H535.695C652.06 0 746.7 94.6435 746.7 211.005ZM693.407 211.005C693.407 124.052 622.646 53.2876 535.69 53.2876H211.299C124.346 53.2876 53.5822 124.049 53.5822 211.005V535.395C53.5822 622.348 124.344 693.112 211.299 693.112H535.69C622.643 693.112 693.407 622.351 693.407 535.395V211.005Z" fill="black"/>
<path d="M416.151 152.012C410.208 151.811 404.456 154.224 400.301 158.668C396.145 163.108 393.967 169.168 394.297 175.369C394.627 181.57 397.433 187.345 402.036 191.277L506.901 285.067H182.667C176.964 284.937 171.453 287.209 167.377 291.375C163.3 295.541 161 301.249 161 307.205C161 313.165 163.299 318.869 167.377 323.036C171.454 327.202 176.965 329.477 182.667 329.348H564.321C570.102 329.307 575.616 326.801 579.587 322.417C583.557 318.028 585.64 312.135 585.353 306.105C585.066 300.075 582.433 294.426 578.065 290.472L429.732 157.588L429.736 157.592C425.982 154.112 421.173 152.133 416.156 152.01L416.151 152.012ZM182.666 417.939V417.943C176.885 417.98 171.371 420.486 167.4 424.874C163.429 429.262 161.346 435.152 161.63 441.182C161.918 447.216 164.551 452.861 168.922 456.816L317.418 589.699V589.696C323.177 594.833 331.126 596.371 338.265 593.728C345.404 591.086 350.653 584.666 352.029 576.886C353.409 569.107 350.709 561.149 344.946 556.012L240.126 462.223H564.315C570.021 462.36 575.536 460.088 579.616 455.922C583.697 451.752 586 446.045 586 440.085C586 434.125 583.697 428.413 579.616 424.248C575.536 420.082 570.022 417.81 564.315 417.947L182.666 417.939Z" fill="black"/>
</svg>
