<svg width="696" height="696" viewBox="0 0 696 696" fill="none" xmlns="http://www.w3.org/2000/svg">
<path d="M690 348C690 159.42 536.58 6 348 6C159.42 6 6 159.42 6 348C6 536.58 159.42 690 348 690C536.58 690 690 536.58 690 348ZM348 649.4C181.82 649.4 46.6 514.18 46.6 348C46.6 181.82 181.82 46.6 348 46.6C514.18 46.6 649.4 181.82 649.4 348C649.4 514.18 514.18 649.4 348 649.4Z" fill="black" stroke="black" stroke-width="12"/>
<path d="M539.547 197.2L470.047 266.705C468.896 267.856 467.547 268.033 466.849 268.033C466.146 268.033 464.802 267.862 463.651 266.705L429.296 232.351C427.536 230.59 427.536 227.72 429.296 225.95L498.796 156.45L479.562 148.075C429.327 126.189 371.879 137.038 333.202 175.731C300.639 208.283 287.535 255.017 297.972 299.491L154.972 442.477C131.108 466.341 131.108 505.171 154.972 529.029L166.962 541.019C178.894 552.951 194.566 558.915 210.238 558.915C225.91 558.915 241.582 552.951 253.514 541.019L396.514 398.032C440.987 408.48 487.717 395.36 520.274 362.803C558.951 324.126 569.81 266.667 547.93 216.43L539.547 197.2ZM500.052 342.587C472.912 369.723 433.203 379.623 396.407 368.404L388.193 365.904L233.313 520.811C227.152 526.972 218.969 530.363 210.256 530.363C201.542 530.363 193.349 526.972 187.198 520.811L175.209 508.821C162.495 496.107 162.495 475.414 175.209 462.701L330.116 307.808L327.616 299.594C316.402 262.807 326.293 223.089 353.433 195.949C373.345 176.042 399.6 165.542 426.444 165.542C433.35 165.542 440.303 166.235 447.189 167.646L409.101 205.74C396.184 218.651 396.184 239.661 409.101 252.573L443.45 286.922C449.705 293.177 458.018 296.631 466.871 296.631C475.72 296.631 484.028 293.183 490.288 286.922L528.375 248.829C535.256 282.485 525.094 317.564 500.064 342.589L500.052 342.587Z" fill="black" stroke="black" stroke-width="5"/>
</svg>
