<svg width="748" height="747" viewBox="0 0 748 747" fill="none" xmlns="http://www.w3.org/2000/svg">
<path d="M587.487 373.333C587.487 388.041 575.539 399.989 560.831 399.989H400.817C400.817 399.989 395.208 399.989 380.5 399.989C365.792 399.989 347.505 399.989 347.505 399.989H187.492C172.784 399.989 160.836 388.041 160.836 373.333C160.836 358.625 172.784 346.677 187.492 346.677H347.505H362.5C362.5 346.677 359.453 346.677 374.161 346.677C388.869 346.677 400.817 346.677 400.817 346.677H560.831C575.539 346.677 587.487 358.625 587.487 373.333ZM747.5 211.08V535.587C747.5 651.993 652.823 746.667 536.42 746.667H211.913C95.5066 746.667 0.833252 651.989 0.833252 535.587V211.08C0.833252 94.6733 95.5106 -1.52588e-05 211.913 -1.52588e-05H536.42C652.827 -1.52588e-05 747.5 94.6773 747.5 211.08ZM694.188 211.08C694.188 124.096 623.401 53.3067 536.415 53.3067H211.908C124.924 53.3067 54.1346 124.093 54.1346 211.08V535.587C54.1346 622.571 124.921 693.36 211.908 693.36H536.415C623.399 693.36 694.188 622.573 694.188 535.587V211.08Z" fill="black"/>
</svg>
